<svg width="512" height="512" viewBox="0 0 512 512" fill="none" xmlns="http://www.w3.org/2000/svg">
  <defs>
    <linearGradient id="bg" x1="42" y1="32" x2="459" y2="491" gradientUnits="userSpaceOnUse">
      <stop stop-color="#222A3A"/>
      <stop offset="0.56" stop-color="#0B0E15"/>
      <stop offset="1" stop-color="#030407"/>
    </linearGradient>
    <linearGradient id="accent" x1="174" y1="143" x2="361" y2="373" gradientUnits="userSpaceOnUse">
      <stop stop-color="#B0F3E8"/>
      <stop offset="0.46" stop-color="#62D7D0"/>
      <stop offset="1" stop-color="#5F7EFA"/>
    </linearGradient>
  </defs>
  <rect width="512" height="512" rx="116" fill="url(#bg)"/>
  <rect x="20" y="20" width="472" height="472" rx="98" stroke="white" stroke-opacity=".08" stroke-width="2"/>
  <path d="M152 142H260C329 142 371 174 371 224C371 262 349 287 312 298L380 370H304L240 307H218V370H152V142ZM218 204V250H255C275 250 287 242 287 227C287 212 275 204 255 204H218Z" fill="url(#accent)"/>
  <circle cx="351" cy="161" r="10" fill="#B0F3E8"/>
</svg>
